<?xml version="1.0" encoding="UTF-8" standalone="no"?>
<svg
   xmlns:dc="http://purl.org/dc/elements/1.1/"
   xmlns:cc="http://creativecommons.org/ns#"
   xmlns:rdf="http://www.w3.org/1999/02/22-rdf-syntax-ns#"
   xmlns:svg="http://www.w3.org/2000/svg"
   xmlns="http://www.w3.org/2000/svg"
   viewBox="0 0 199.6447 228.05486"
   height="228.05486"
   width="199.6447"
   id="svg3713"
   version="1.1">
  <metadata
     id="metadata3719">
    <rdf:RDF>
      <cc:Work
         rdf:about="">
        <dc:format>image/svg+xml</dc:format>
        <dc:type
           rdf:resource="http://purl.org/dc/dcmitype/StillImage" />
        <dc:title></dc:title>
      </cc:Work>
    </rdf:RDF>
  </metadata>
  <defs
     id="defs3717" />
  <g
     transform="translate(-281.80633,-7.9038524)"
     id="g4563">
    <g
       id="g3723"
       transform="translate(255.30555,-4.602267)"
       style="stroke:#000000;stroke-opacity:0">
      <path
         style="fill:#949494;stroke:#000000;stroke-width:1.33333337;stroke-opacity:0"
         d="m 127.03522,50.769863 c 0,-20.533333 -0.002,-37.155127 -0.002,-37.155127 0,0 23.23392,12.330592 49.63392,27.633967 l 48,27.82432 0.39175,9.463488 0.39175,9.463488 h -49.39175 l -49.02319,0.103197 z"
         id="path3729" />
      <path
         style="fill:#b30c12;stroke:#000000;stroke-width:1.33333337;stroke-opacity:0"
         d="M 76.333332,211.75117 28,183.71829 v -9.19248 -9.19248 h 98.66666 98.66667 v 9.19337 9.19338 l -48.80108,28.13996 c -26.84059,15.47697 -49.49059,28.09137 -50.33333,28.03198 -0.84274,-0.0594 -23.28225,-12.72277 -49.865588,-28.14085 z"
         id="path3727" />
      <path
         style="fill:#003062;stroke:#000000;stroke-width:1.33333337;stroke-opacity:0"
         d="M 28,126.66666 V 87.999999 h 98.66666 98.66667 v 38.666661 38.66667 H 126.66666 28 Z"
         id="path3725" />
    </g>
    <path
       style="fill:#ffffff;fill-opacity:1;stroke:#000000;stroke-width:1px;stroke-linecap:butt;stroke-linejoin:miter;stroke-opacity:0"
       d="M 283.30803,83.673249 382.34125,9.2879858 V 83.500929 Z"
       id="path4536" />
  </g>
</svg>
